<?xml version="1.0" encoding="utf-8"?>
<!-- Generator: Adobe Illustrator 24.0.0, SVG Export Plug-In . SVG Version: 6.00 Build 0)  -->
<svg version="1.1" xmlns="http://www.w3.org/2000/svg" xmlns:xlink="http://www.w3.org/1999/xlink" x="0px" y="0px"
	 viewBox="0 0 19.65 20.51" style="enable-background:new 0 0 19.65 20.51;" xml:space="preserve">
<style type="text/css">
	.st0{fill:#F00005;}
	.st1{fill:#FB1F4C;}
</style>
<g id="gift_voucher_2_">
	<g>
		<g>
			<g>
				<rect x="9.32" y="8.55" class="st1" width="0.05" height="0.05"/>
				<rect x="10.17" y="8.55" class="st1" width="0.05" height="0.05"/>
			</g>
		</g>
	</g>
	<g>
		<g>
			<g>
				<path class="st1" d="M10.17,8.55V8.6h0.05V8.55H10.17z M9.32,8.55V8.6h0.05V8.55H9.32z M10.17,8.55V8.6h0.05V8.55H10.17z
					 M9.32,8.55V8.6h0.05V8.55H9.32z M10.17,8.55V8.6h0.05V8.55H10.17z M9.32,8.55V8.6h0.05V8.55H9.32z M10.17,8.55V8.6h0.05V8.55
					H10.17z M9.32,8.55V8.6h0.05V8.55H9.32z M10.17,8.55V8.6h0.05V8.55H10.17z M9.32,8.55V8.6h0.05V8.55H9.32z"/>
				<path class="st1" d="M14.09,7.87h-2.38c0.07-0.05,0.13-0.11,0.19-0.16c0.38-0.34,0.68-0.72,0.86-1.08
					c0.31-0.64,0.12-0.99-0.02-1.14c-0.1-0.11-0.28-0.24-0.59-0.24c-0.47,0-1.12,0.32-1.7,0.85c-0.28,0.25-0.53,0.53-0.7,0.81
					C9.63,6.77,9.5,6.63,9.35,6.49C8.89,6.08,8.39,5.83,8.01,5.83c-0.27,0-0.43,0.11-0.52,0.21C7.37,6.17,7.2,6.48,7.46,7.01
					C7.6,7.29,7.83,7.59,8.12,7.85c0.01,0.01,0.02,0.01,0.03,0.02h-2.7c-0.32,0-0.59,0.27-0.59,0.59v1.5c0,0.32,0.27,0.58,0.59,0.58
					h0.28v4.24c0,0.35,0.28,0.64,0.64,0.64h6.81c0.35,0,0.63-0.29,0.63-0.64v-4.24h0.28c0.33,0,0.59-0.26,0.59-0.58v-1.5
					C14.68,8.14,14.42,7.87,14.09,7.87z M5.58,9.82V8.6h2.98v1.22H5.58z M6.51,14.64v-4.1h2.05v4.1H6.51z M8.67,7.25
					C8.44,7.04,8.29,6.84,8.2,6.69c0.13,0.05,0.35,0.16,0.61,0.4C9.06,7.32,9.2,7.52,9.27,7.65C9.14,7.59,8.92,7.48,8.67,7.25z
					 M10.17,14.55h-0.8v-4.01h0.8V14.55z M10.22,8.6h-0.05v1.22h-0.8V8.6H9.32V8.55h0.05V8.6h0.8V8.55h0.05V8.6z M10.99,6.69
					c0.44-0.39,0.89-0.61,1.12-0.63c-0.04,0.17-0.25,0.6-0.75,1.05c-0.46,0.42-0.9,0.62-1.12,0.64C10.28,7.57,10.49,7.15,10.99,6.69
					z M13.03,14.64h-2.06v-4.1h2.06V14.64z M13.96,9.82h-2.99V8.6h2.99V9.82z"/>
			</g>
		</g>
	</g>
</g>
</svg>
