<?xml version="1.0" encoding="utf-8"?>
<!-- Generator: Adobe Illustrator 24.0.0, SVG Export Plug-In . SVG Version: 6.00 Build 0)  -->
<svg version="1.1" id="Layer_1" xmlns="http://www.w3.org/2000/svg" xmlns:xlink="http://www.w3.org/1999/xlink" x="0px" y="0px"
	 viewBox="0 0 109.8 62.1" style="enable-background:new 0 0 109.8 62.1;" xml:space="preserve">
<style type="text/css">
	.st0{fill:url(#SVGID_1_);}
	.st1{fill:#FFFFFF;}
	.st2{fill:#E57B26;}
	.st3{fill:#EB8226;}
	.st4{fill:url(#SVGID_2_);}
</style>
<linearGradient id="SVGID_1_" gradientUnits="userSpaceOnUse" x1="-4.8453" y1="59.8459" x2="61.3085" y2="1.8459">
	<stop  offset="0" style="stop-color:#F89E4F"/>
	<stop  offset="1" style="stop-color:#EA8025"/>
</linearGradient>
<path class="st0" d="M0,19c0-2.1,1.4-4.6,3.2-5.7L24.4,0.8c1.8-1,4.7-1.1,6.5-0.1l21.5,12.1c1.8,1,3.3,3.5,3.3,5.6L56,43.1
	c0,2.1-1.4,4.6-3.2,5.7L31.5,61.3c-1.8,1-4.7,1.1-6.5,0.1L3.5,49.3c-1.8-1-3.3-3.5-3.3-5.6L0,19z"/>
<g>
	<g>
		<path class="st1" d="M48.7,37.2c0,0.5-0.5,0.9-1.1,0.9H8.3c-0.6,0-1.1-0.4-1.1-0.9s0.5-0.9,1.1-0.9h39.3
			C48.2,36.3,48.7,36.7,48.7,37.2z"/>
	</g>
	<g>
		<path class="st1" d="M40.4,40.1c0,0.5-0.5,0.9-1,0.9H16.6c-0.6,0-1-0.4-1-0.9s0.5-0.9,1-0.9h22.8C39.9,39.2,40.4,39.6,40.4,40.1z"
			/>
	</g>
	<path class="st1" d="M43.3,35.2H12.6c0-8,6.1-14.6,14-15.3c0-0.7,0.6-1.3,1.3-1.3c0.7,0,1.3,0.6,1.3,1.3
		C37.2,20.6,43.3,27.2,43.3,35.2z"/>
</g>
<g>
	<path class="st2" d="M73.7,31.1c0,0.5,0,0.9-0.1,1.3c-0.1,0.4-0.3,0.8-0.5,1.2c-0.2,0.4-0.4,0.8-0.7,1.1s-0.6,0.6-1,0.9
		c-0.8,0.5-1.7,0.8-2.6,0.9c-0.9,0.1-1.9-0.1-2.7-0.5c-0.4-0.2-0.8-0.4-1.1-0.7c-0.4-0.3-0.7-0.6-0.9-1c-0.3-0.4-0.5-0.8-0.7-1.2
		s-0.3-0.9-0.3-1.3c0-0.1,0-0.2,0-0.3c0-0.1,0-0.2,0-0.3v-0.2v-6.9c0-0.3,0.1-0.5,0.3-0.7c0.2-0.2,0.4-0.3,0.7-0.3
		c0.3,0,0.5,0.1,0.7,0.3c0.2,0.2,0.3,0.4,0.3,0.7v2.8v0c0.6-0.4,1.2-0.7,1.9-0.9c0.7-0.2,1.4-0.2,2.1-0.2c0.7,0.1,1.4,0.3,2,0.7
		s1.2,0.8,1.6,1.4c0.3,0.5,0.6,1,0.8,1.5C73.5,30,73.6,30.6,73.7,31.1z M71,33.2c0.4-0.6,0.6-1.3,0.6-2.1c0-0.4-0.1-0.8-0.3-1.2
		s-0.4-0.7-0.7-1c-0.1-0.1-0.3-0.3-0.5-0.4c-0.2-0.1-0.3-0.2-0.5-0.3c-0.4-0.2-0.9-0.3-1.3-0.3s-0.9,0.1-1.3,0.3
		c-0.4,0.2-0.8,0.5-1.1,0.8c-0.3,0.3-0.5,0.7-0.7,1.1c-0.2,0.6-0.2,1.1-0.1,1.7c0.1,0.6,0.4,1.1,0.8,1.6c0.3,0.4,0.7,0.6,1.1,0.8
		c0.1,0.1,0.2,0.1,0.3,0.2c0.1,0,0.2,0.1,0.3,0.1c-0.1,0-0.2-0.1-0.3-0.1c-0.1,0-0.2-0.1-0.3-0.1c0.7,0.3,1.4,0.4,2.2,0.2
		c0.4-0.1,0.7-0.3,1-0.5C70.5,33.8,70.8,33.5,71,33.2z"/>
	<path class="st2" d="M84.8,25.9c0.3,0,0.5,0.1,0.7,0.3c0.2,0.2,0.3,0.5,0.3,0.7v4.3c0,0.7-0.1,1.4-0.4,2.1
		c-0.3,0.7-0.7,1.2-1.2,1.7c-0.5,0.5-1.1,0.9-1.7,1.2c-0.7,0.3-1.3,0.4-2.1,0.4c-0.7,0-1.4-0.1-2.1-0.4c-0.7-0.3-1.2-0.7-1.7-1.2
		c-0.5-0.5-0.9-1.1-1.2-1.7c-0.3-0.7-0.4-1.3-0.4-2.1v-4.3c0-0.3,0.1-0.5,0.3-0.7s0.5-0.3,0.7-0.3s0.5,0.1,0.7,0.3
		c0.2,0.2,0.3,0.5,0.3,0.7v4.3c0,0.5,0.1,0.9,0.3,1.3c0.2,0.4,0.4,0.7,0.7,1c0.3,0.3,0.6,0.5,1,0.7c0.4,0.2,0.8,0.3,1.3,0.3
		c0.4,0,0.9-0.1,1.3-0.3c0.4-0.2,0.8-0.4,1.1-0.7c0.3-0.3,0.5-0.6,0.7-1c0.2-0.4,0.3-0.8,0.3-1.3h0v-4.3c0-0.3,0.1-0.5,0.3-0.7
		C84.3,26,84.5,25.9,84.8,25.9z"/>
	<path class="st2" d="M96.5,35.6c0,0.2-0.1,0.4-0.2,0.6s-0.3,0.3-0.6,0.4c-0.2,0.1-0.5,0-0.7-0.1s-0.4-0.3-0.5-0.5
		c0-0.1-0.1-0.2-0.1-0.3s0-0.2,0-0.4c0-0.3-0.1-0.6-0.2-0.9c-0.2-0.5-0.5-0.9-0.9-1.3c-0.5-0.4-1-0.7-1.7-0.8c-0.2,0-0.3,0-0.5,0
		s-0.3,0-0.5,0h-0.9c0,0-0.1,0-0.1,0v0.2v1.9v0.8c0,0.1,0,0.2,0,0.3c0,0.1,0,0.2-0.1,0.3c-0.1,0.2-0.3,0.4-0.5,0.5
		c-0.2,0.1-0.5,0.1-0.7,0.1c-0.2-0.1-0.4-0.2-0.6-0.4s-0.2-0.4-0.2-0.7v-1.3v-3.1v-3.1c0-0.2,0-0.4,0-0.6c0-0.2,0-0.4,0-0.6
		c0-0.2,0.1-0.5,0.3-0.7c0.2-0.2,0.4-0.3,0.6-0.4c0.3,0,0.6,0,0.8,0.2c0.2,0.2,0.4,0.4,0.4,0.7c0,0.1,0,0.2,0,0.3s0,0.2,0,0.3v1v1.4
		v0.3c0,0.1,0,0.1,0,0.1s0,0,0.1,0h1c0,0,0,0,0.1,0s0.1,0,0.1,0l0.2-0.3c0.1-0.1,0.2-0.3,0.2-0.4s0.2-0.3,0.2-0.4
		c0.3-0.4,0.5-0.9,0.8-1.3c0.3-0.4,0.5-0.9,0.8-1.3c0.1-0.1,0.1-0.2,0.2-0.3c0.1-0.1,0.1-0.2,0.2-0.2c0.2-0.2,0.5-0.2,0.8-0.2
		c0.3,0,0.5,0.2,0.7,0.4c0.1,0.2,0.2,0.4,0.2,0.6c0,0.2,0,0.4-0.2,0.6c0,0.1-0.1,0.1-0.1,0.2c0,0.1-0.1,0.1-0.1,0.2l-1.7,2.8
		c0.5,0.2,0.9,0.5,1.4,0.8c0.4,0.3,0.8,0.7,1.1,1.2s0.5,0.9,0.7,1.4C96.4,34.6,96.5,35.1,96.5,35.6z"/>
	<path class="st2" d="M103.4,25.9c0.7,0,1.4,0.1,2.1,0.4c0.7,0.3,1.2,0.7,1.7,1.2c0.5,0.5,0.9,1.1,1.2,1.7c0.3,0.7,0.4,1.4,0.4,2.1
		v4.3c0,0.3-0.1,0.5-0.3,0.7c-0.2,0.2-0.4,0.3-0.7,0.3s-0.5-0.1-0.7-0.3c-0.2-0.2-0.3-0.4-0.3-0.7v-2h-3.3v0c0,0-0.1,0-0.2,0
		c-0.4,0-0.7,0.1-1.1,0.2c-0.3,0.1-0.6,0.3-0.9,0.5c-0.3,0.2-0.5,0.4-0.7,0.7c-0.2,0.3-0.4,0.6-0.5,0.9c0,0,0,0,0,0s0,0,0,0
		c-0.1,0.2-0.2,0.4-0.4,0.5c-0.2,0.1-0.4,0.2-0.6,0.2c-0.3,0-0.5-0.1-0.7-0.3c-0.2-0.2-0.3-0.4-0.3-0.7v-0.2v-4.2
		c0-0.7,0.1-1.3,0.3-1.9c0.3-0.7,0.7-1.3,1.2-1.9c0.5-0.5,1.1-0.9,1.7-1.2C101.9,26,102.6,25.9,103.4,25.9z M106.7,31.5v-0.3
		c0-0.6-0.1-1.1-0.4-1.6c0,0,0,0,0,0s0,0,0,0c0-0.1-0.1-0.1-0.1-0.2c0-0.1-0.1-0.1-0.1-0.2c-0.3-0.4-0.7-0.7-1.1-0.9
		c-0.4-0.2-0.9-0.3-1.5-0.3c-0.5,0-1,0.1-1.5,0.4c-0.5,0.2-0.8,0.6-1.1,0.9c-0.2,0.3-0.4,0.6-0.5,0.9c-0.1,0.3-0.2,0.7-0.2,1.1v1.2
		c0.4-0.3,0.9-0.6,1.4-0.7s1.1-0.3,1.7-0.3h0.2L106.7,31.5L106.7,31.5z"/>
</g>
<rect x="-38.8" y="-44.3" class="st3" width="20.5" height="20.5"/>
<linearGradient id="SVGID_2_" gradientUnits="userSpaceOnUse" x1="-15.6923" y1="-34.0513" x2="4.8205" y2="-34.0513">
	<stop  offset="0" style="stop-color:#F89E4F"/>
	<stop  offset="1" style="stop-color:#EA8025"/>
</linearGradient>
<rect x="-15.7" y="-44.3" class="st4" width="20.5" height="20.5"/>
</svg>
