<?xml version="1.0" encoding="utf-8"?>
<!-- Generator: Adobe Illustrator 24.0.0, SVG Export Plug-In . SVG Version: 6.00 Build 0)  -->
<svg version="1.1" xmlns="http://www.w3.org/2000/svg" xmlns:xlink="http://www.w3.org/1999/xlink" x="0px" y="0px"
	 viewBox="0 0 19.65 20.51" style="enable-background:new 0 0 19.65 20.51;" xml:space="preserve">
<style type="text/css">
	.st0{fill:#F00005;}
</style>
<g id="cc_x5F_icon">
	<path class="st0" d="M12.04,13.11l0.25,0.06c-0.18,0.34-0.54,0.81-1.25,1.1c0.04,0.29-0.17,0.61-0.52,0.76
		c-0.41,0.18-0.85,0.06-1-0.27c-0.14-0.33,0.07-0.74,0.48-0.92c0.3-0.13,0.62-0.1,0.83,0.05c0.91-0.35,1.15-1.02,1.21-1.21V13.11z"
		/>
	<path class="st0" d="M14.66,11.28c0,1.23-0.67,1.96-1.8,1.96c-0.28,0-0.48-0.04-0.5-0.05l-0.07-0.02c0.13-0.24,0.17-0.42,0.17-0.44
		l-0.41-0.08c0,0,0,0.02-0.01,0.05V9.42l0.12-0.03l0.2-0.04c0.02-0.01,0.14-0.03,0.32-0.04c-0.2-1.8-1.37-3.1-2.89-3.1
		c-1.51,0-2.65,1.27-2.84,3.09c0.19,0.01,0.32,0.04,0.33,0.04l0.32,0.07v3.69L7.3,13.19c-0.02,0.01-0.23,0.05-0.5,0.05
		c-1.13,0-1.8-0.73-1.8-1.96c0-0.96,0.41-1.62,1.14-1.87C6.31,7.09,7.82,5.4,9.8,5.4c2,0,3.54,1.69,3.72,4.01
		C14.24,9.65,14.66,10.31,14.66,11.28z"/>
	<path class="st0" d="M12.46,12.72c0,0.02-0.04,0.2-0.17,0.44l-0.25-0.06v-0.41c0.01-0.03,0.01-0.04,0.01-0.05L12.46,12.72z"/>
	<g>
		<path class="st0" d="M12.17,9.4l-0.12,0.03c0.01-0.03,0.01-0.04,0.01-0.05L12.17,9.4z"/>
	</g>
</g>
</svg>
