<!-- Generator: Adobe Illustrator 17.0.0, SVG Export Plug-In  -->
<svg version="1.1"
	 xmlns="http://www.w3.org/2000/svg" xmlns:xlink="http://www.w3.org/1999/xlink" xmlns:a="http://ns.adobe.com/AdobeSVGViewerExtensions/3.0/"
	 x="0px" y="0px" width="40.286px" height="30.599px" viewBox="0 0 40.286 30.599" enable-background="new 0 0 40.286 30.599"
	 xml:space="preserve">
<defs>
</defs>
<g>
	<g>
		<path fill="#FB1F4C" d="M26.414,2.855c-7.662,0-13.872,6.21-13.872,13.872c0,7.662,6.21,13.872,13.872,13.872
			s13.872-6.21,13.872-13.872C40.286,9.065,34.076,2.855,26.414,2.855z M26.414,28.658c-6.589,0-11.931-5.342-11.931-11.931
			c0-6.59,5.342-11.931,11.931-11.931s11.931,5.342,11.931,11.931C38.345,23.316,33.004,28.658,26.414,28.658z"/>
		<rect x="25.326" y="1.292" fill="#FB1F4C" width="1.984" height="1.984"/>
		<path fill="#FB1F4C" d="M30.205,0.5c0,0.276-0.224,0.5-0.5,0.5h-7c-0.276,0-0.5-0.224-0.5-0.5l0,0c0-0.276,0.224-0.5,0.5-0.5h7
			C29.982,0,30.205,0.224,30.205,0.5L30.205,0.5z"/>
		<path fill="#FB1F4C" d="M11.728,10.5c0,0.54-0.468,1.5-1.039,1.5H3.759c-0.572,0-1.039-0.96-1.039-1.5l0,0
			c0-0.54,0.468-1.5,1.039-1.5h6.929C11.26,9,11.728,9.96,11.728,10.5L11.728,10.5z"/>
		<path fill="#FB1F4C" d="M10.997,16c0,0.54-0.571,1-1.269,1H1.269C0.571,17,0,16.54,0,16l0,0c0-0.54,0.571-1,1.269-1h8.459
			C10.426,15,10.997,15.46,10.997,16L10.997,16z"/>
		<path fill="#FB1F4C" d="M12.111,23c0,0.54-0.508,1-1.128,1H3.464c-0.62,0-1.128-0.46-1.128-1l0,0c0-0.54,0.508-1,1.128-1h7.519
			C11.603,22,12.111,22.46,12.111,23L12.111,23z"/>
		<path fill="#FB1F4C" d="M38.18,6.108c-0.009,0.012-0.062,0.08-0.063,0.079l-3.582-2.777c-0.002-0.001,0.051-0.069,0.06-0.081
			c0.768-0.99,2.192-1.17,3.182-0.403S38.948,5.117,38.18,6.108z"/>
		<path fill="#FB1F4C" d="M14.886,6.108c0.009,0.012,0.062,0.08,0.063,0.079l3.582-2.777c0.002-0.001-0.051-0.069-0.06-0.081
			c-0.768-0.99-2.192-1.17-3.182-0.403S14.118,5.117,14.886,6.108z"/>
		<g>
			<path fill="#FB1F4C" d="M22.16,16.31c-0.151-0.047-0.19-0.184-0.086-0.304l6.884-7.974c0.103-0.12,0.156-0.092,0.118,0.061
				l-1.657,6.628c-0.038,0.153,0.052,0.321,0.202,0.373l2.979,1.035c0.149,0.052,0.186,0.192,0.082,0.311l-7.743,8.839
				c-0.104,0.119-0.147,0.094-0.096-0.056l2.616-7.578c0.052-0.149-0.03-0.31-0.181-0.358L22.16,16.31z"/>
		</g>
	</g>
</g>
</svg>
