<?xml version="1.0" encoding="utf-8"?>
<!-- Generator: Adobe Illustrator 24.0.0, SVG Export Plug-In . SVG Version: 6.00 Build 0)  -->
<svg version="1.1" xmlns="http://www.w3.org/2000/svg" xmlns:xlink="http://www.w3.org/1999/xlink" x="0px" y="0px"
	 viewBox="0 0 19.65 20.51" style="enable-background:new 0 0 19.65 20.51;" xml:space="preserve">
<style type="text/css">
	.st0{fill:#F00005;}
	.st1{fill:#FB1F4C;}
</style>
<g>
	<path class="st1" d="M10.9,6.25c1.11,0,2.02,0.91,2.02,2.02v5.11c0,0.49-0.4,0.88-0.88,0.88H7.58c-0.47,0-0.85-0.38-0.85-0.85V7.04
		c0-0.44,0.35-0.79,0.79-0.79H10.9 M10.9,5.34H7.52c-0.94,0-1.7,0.76-1.7,1.7v6.37c0,0.97,0.79,1.76,1.76,1.76h4.46
		c0.99,0,1.79-0.8,1.79-1.79V8.27C13.83,6.65,12.52,5.34,10.9,5.34L10.9,5.34z"/>
	<g>
		<path class="st1" d="M13.08,9.27h-2.12c-0.89,0-1.21-0.81-1.21-1.36V6.25h0.91v1.66c0,0.1,0.03,0.45,0.3,0.45h2.12V9.27z"/>
	</g>
	<path class="st1" d="M11.57,11.24H8.24c-0.25,0-0.45-0.2-0.45-0.45v0c0-0.25,0.2-0.45,0.45-0.45h3.33c0.25,0,0.45,0.2,0.45,0.45v0
		C12.02,11.03,11.82,11.24,11.57,11.24z"/>
	<path class="st1" d="M11.57,13.05H8.24c-0.25,0-0.45-0.2-0.45-0.45v0c0-0.25,0.2-0.45,0.45-0.45h3.33c0.25,0,0.45,0.2,0.45,0.45v0
		C12.02,12.85,11.82,13.05,11.57,13.05z"/>
</g>
</svg>
