<!-- Generator: Adobe Illustrator 17.0.0, SVG Export Plug-In  -->
<svg version="1.1"
	 xmlns="http://www.w3.org/2000/svg" xmlns:xlink="http://www.w3.org/1999/xlink" xmlns:a="http://ns.adobe.com/AdobeSVGViewerExtensions/3.0/"
	 x="0px" y="0px" width="23.005px" height="23.283px" viewBox="0 0 23.005 23.283" enable-background="new 0 0 23.005 23.283"
	 xml:space="preserve">
<defs>
</defs>
<g>
	<path fill="#F00005" d="M0.014,21.76c0.051,0.364,0.233,0.721,0.517,0.998c0.328,0.335,0.772,0.525,1.202,0.525
		c0.357,0,0.685-0.131,0.925-0.372l6.209-6.209c1.436,0.955,3.17,1.516,5.028,1.516c5.028,0,9.109-4.088,9.109-9.109
		C23.005,4.081,18.924,0,13.896,0C8.875,0,4.787,4.081,4.787,9.109c0,2.004,0.649,3.855,1.749,5.356l-6.158,6.158
		C0.086,20.915-0.045,21.33,0.014,21.76z M6.973,9.109c0-3.819,3.112-6.923,6.923-6.923c3.819,0,6.923,3.104,6.923,6.923
		c0,3.811-3.104,6.923-6.923,6.923C10.085,16.032,6.973,12.921,6.973,9.109z"/>
</g>
</svg>
