<?xml version="1.0" encoding="utf-8"?>
<!-- Generator: Adobe Illustrator 24.0.0, SVG Export Plug-In . SVG Version: 6.00 Build 0)  -->
<svg version="1.1" xmlns="http://www.w3.org/2000/svg" xmlns:xlink="http://www.w3.org/1999/xlink" x="0px" y="0px"
	 viewBox="0 0 19.65 20.51" style="enable-background:new 0 0 19.65 20.51;" xml:space="preserve">
<style type="text/css">
	.st0{fill:#F00005;}
	.st1{fill:#FB1F4C;}
</style>
<g>
	<path class="st1" d="M9.84,6.2c0.03,0,0.07,0.01,0.1,0.03l3.33,1.92c0.06,0.03,0.1,0.1,0.1,0.17l-0.01,3.87
		c0,0.07-0.04,0.13-0.1,0.17l-3.34,1.94c-0.03,0.02-0.06,0.03-0.1,0.03c-0.03,0-0.07-0.01-0.1-0.03l-3.33-1.92
		c-0.06-0.03-0.1-0.1-0.1-0.17L6.3,8.33c0-0.07,0.04-0.13,0.1-0.17l3.34-1.94C9.77,6.21,9.8,6.2,9.84,6.2 M9.84,5.27
		c-0.19,0-0.39,0.05-0.56,0.15L5.93,7.36c-0.34,0.2-0.56,0.57-0.56,0.96L5.37,12.2c0,0.4,0.21,0.77,0.56,0.97l3.33,1.92
		c0.17,0.1,0.37,0.15,0.56,0.15c0.19,0,0.39-0.05,0.56-0.15l3.34-1.94c0.34-0.2,0.56-0.57,0.56-0.96l0.01-3.87
		c0-0.4-0.21-0.77-0.56-0.97L10.4,5.42C10.22,5.32,10.03,5.27,9.84,5.27L9.84,5.27z"/>
	<path class="st1" d="M9.83,9.18c0.59,0,1.08,0.48,1.08,1.08s-0.48,1.08-1.08,1.08s-1.08-0.48-1.08-1.08S9.23,9.18,9.83,9.18
		 M9.83,8.41c-1.02,0-1.85,0.83-1.85,1.85s0.83,1.85,1.85,1.85s1.85-0.83,1.85-1.85S10.85,8.41,9.83,8.41L9.83,8.41z"/>
</g>
</svg>
